<?xml version="1.0" encoding="UTF-8"?>
<svg width="101px" height="31px" viewBox="0 0 101 31" version="1.1" xmlns="http://www.w3.org/2000/svg" xmlns:xlink="http://www.w3.org/1999/xlink">
    <title>g12</title>
    <defs>
        <linearGradient x1="60.8281181%" y1="4.97021439%" x2="18.3607461%" y2="87.8454106%" id="linearGradient-1">
            <stop stop-color="#00A0FF" offset="0%"></stop>
            <stop stop-color="#00A1FF" offset="0.6599999%"></stop>
            <stop stop-color="#00BEFF" offset="26.01%"></stop>
            <stop stop-color="#00D2FF" offset="51.22%"></stop>
            <stop stop-color="#00DFFF" offset="76.04%"></stop>
            <stop stop-color="#00E3FF" offset="100%"></stop>
        </linearGradient>
        <linearGradient x1="107.377907%" y1="49.984037%" x2="-190.634408%" y2="49.984037%" id="linearGradient-2">
            <stop stop-color="#FFE000" offset="0%"></stop>
            <stop stop-color="#FFBD00" offset="40.87%"></stop>
            <stop stop-color="#FFA500" offset="77.54%"></stop>
            <stop stop-color="#FF9C00" offset="100%"></stop>
        </linearGradient>
        <linearGradient x1="36.1524489%" y1="51.7832313%" x2="-134.833953%" y2="184.577669%" id="linearGradient-3">
            <stop stop-color="#FF3A44" offset="0%"></stop>
            <stop stop-color="#C31162" offset="100%"></stop>
        </linearGradient>
        <linearGradient x1="-68.7391097%" y1="-34.1848659%" x2="7.52076513%" y2="24.9685213%" id="linearGradient-4">
            <stop stop-color="#32A071" offset="0%"></stop>
            <stop stop-color="#2DA771" offset="6.85%"></stop>
            <stop stop-color="#15CF74" offset="47.62%"></stop>
            <stop stop-color="#06E775" offset="80.09%"></stop>
            <stop stop-color="#00F076" offset="100%"></stop>
        </linearGradient>
    </defs>
    <g id="Page-1" stroke="none" stroke-width="1" fill="none" fill-rule="evenodd">
        <g id="g12" transform="translate(50.062866, 15.854051) scale(-1, 1) rotate(-180.000000) translate(-50.062866, -15.854051) translate(0.062866, 0.854051)" fill-rule="nonzero">
            <path d="M96.1689291,0.0609137056 L3.69532428,0.0609137056 C1.65912519,0.0609137056 0,1.73604061 0,3.79187817 L0,26.1928934 C0,28.248731 1.65912519,29.9238579 3.69532428,29.9238579 L96.1689291,29.9238579 C98.2051282,29.9238579 99.8642534,28.248731 99.8642534,26.1928934 L99.8642534,3.79187817 C99.8642534,1.73604061 98.1900452,0.0609137056 96.1689291,0.0609137056 Z" id="path14" fill="#000000"></path>
            <g id="g18" transform="translate(32.805430, 22.461929) scale(-1, 1) rotate(-180.000000) translate(-32.805430, -22.461929) translate(30.467572, 20.101523)" fill="#FFFFFF" stroke="#FFFFFF" stroke-width="0.625">
                <path d="M4.60030166,2.54314721 C4.60030166,3.16751269 4.41930618,3.67005076 4.05731523,4.03553299 C3.63499246,4.47715736 3.09200603,4.70558376 2.42835596,4.70558376 C1.79487179,4.70558376 1.23680241,4.47715736 0.799396682,4.03553299 C0.346907994,3.5786802 0.12066365,3.03045685 0.12066365,2.36040609 C0.12066365,1.69035533 0.346907994,1.14213198 0.799396682,0.700507614 C1.25188537,0.258883249 1.79487179,0.0304568528 2.42835596,0.0304568528 C2.74509804,0.0304568528 3.04675716,0.0913705584 3.33333333,0.21319797 C3.6199095,0.335025381 3.8612368,0.502538071 4.02714932,0.715736041 L3.63499246,1.11167513 C3.33333333,0.76142132 2.94117647,0.578680203 2.413273,0.578680203 C1.94570136,0.578680203 1.53846154,0.746192893 1.2066365,1.08121827 C0.859728507,1.41624365 0.693815988,1.84263959 0.693815988,2.37563452 C0.693815988,2.90862944 0.859728507,3.33502538 1.2066365,3.67005076 C1.55354449,4.00507614 1.96078431,4.17258883 2.413273,4.17258883 C2.91101056,4.17258883 3.31825038,4.00507614 3.65007541,3.67005076 C3.8612368,3.45685279 3.99698341,3.15228426 4.02714932,2.75634518 L2.413273,2.75634518 L2.413273,2.22335025 L4.55505279,2.22335025 C4.60030166,2.31472081 4.60030166,2.4213198 4.60030166,2.54314721 Z" id="path20"></path>
            </g>
            <g id="g22" transform="translate(37.179487, 22.461929) scale(-1, 1) rotate(-180.000000) translate(-37.179487, -22.461929) translate(35.746606, 20.101523)" fill="#FFFFFF" stroke="#FFFFFF" stroke-width="0.625">
                <path d="M2.73001508,0.670050761 L0.708898944,0.670050761 L0.708898944,2.08629442 L2.53393665,2.08629442 L2.53393665,2.61928934 L0.708898944,2.61928934 L0.708898944,4.03553299 L2.73001508,4.03553299 L2.73001508,4.58375635 L0.135746606,4.58375635 L0.135746606,0.106598985 L2.73001508,0.106598985 C2.73001508,0.121827411 2.73001508,0.670050761 2.73001508,0.670050761 Z" id="path24"></path>
            </g>
            <g id="g26" transform="translate(40.648567, 22.461929) scale(-1, 1) rotate(-180.000000) translate(-40.648567, -22.461929) translate(39.064857, 20.101523)" fill="#FFFFFF" stroke="#FFFFFF" stroke-width="0.625">
                <polygon id="path28" points="1.82503771 4.59898477 1.25188537 4.59898477 1.25188537 0.670050761 0.0150829563 0.670050761 0.0150829563 0.121827411 3.06184012 0.121827411 3.06184012 0.670050761 1.82503771 0.670050761"></polygon>
            </g>
            <g id="g30" transform="translate(44.694126, 22.461929) scale(-1, 1) rotate(-180.000000) translate(-44.694126, -22.461929) translate(44.193062, 20.101523)" fill="#FFFFFF" stroke="#FFFFFF" stroke-width="0.625">
                <polygon id="path32" points="0.18038295 4.59898477 0.18038295 0.121827411 0.941999847 0.121827411 0.941999847 4.59898477"></polygon>
            </g>
            <g id="g34" transform="translate(47.134238, 22.461929) scale(-1, 1) rotate(-180.000000) translate(-47.134238, -22.461929) translate(45.550528, 20.101523)" fill="#FFFFFF" stroke="#FFFFFF" stroke-width="0.625">
                <path d="M1.88536953,4.59898477 L1.31221719,4.59898477 L1.31221719,0.670050761 L0.0754147813,0.670050761 L0.0754147813,0.121827411 L3.12217195,0.121827411 L3.12217195,0.670050761 L1.88536953,0.670050761 C1.88536953,0.670050761 1.88536953,4.59898477 1.88536953,4.59898477 Z" id="path36"></path>
            </g>
            <g id="g38" transform="translate(52.865762, 22.461929) scale(-1, 1) rotate(-180.000000) translate(-52.865762, -22.461929) translate(50.527903, 20.101523)" fill="#FFFFFF" stroke="#FFFFFF" stroke-width="0.625">
                <path d="M3.92156863,4.02030457 C3.4841629,4.47715736 2.94117647,4.70558376 2.29260935,4.70558376 C1.64404223,4.70558376 1.10105581,4.47715736 0.663650075,4.02030457 C0.226244344,3.56345178 0.0150829563,3.01522843 0.0150829563,2.36040609 C0.0150829563,1.70558376 0.226244344,1.14213198 0.663650075,0.700507614 C1.10105581,0.243654822 1.64404223,0.0152284264 2.29260935,0.0152284264 C2.94117647,0.0152284264 3.4841629,0.243654822 3.92156863,0.700507614 C4.35897436,1.15736041 4.5852187,1.70558376 4.5852187,2.36040609 C4.57013575,3.01522843 4.35897436,3.56345178 3.92156863,4.02030457 Z M1.08597285,3.63959391 C1.41779789,3.97461929 1.80995475,4.14213198 2.29260935,4.14213198 C2.760181,4.14213198 3.16742081,3.97461929 3.49924585,3.63959391 C3.83107089,3.30456853 3.99698341,2.87817259 3.99698341,2.34517766 C3.99698341,1.81218274 3.83107089,1.3857868 3.49924585,1.05076142 C3.16742081,0.715736041 2.77526395,0.54822335 2.29260935,0.54822335 C1.80995475,0.54822335 1.41779789,0.715736041 1.08597285,1.05076142 C0.754147813,1.3857868 0.588235294,1.81218274 0.588235294,2.34517766 C0.588235294,2.87817259 0.754147813,3.30456853 1.08597285,3.63959391 Z" id="path40"></path>
            </g>
            <g id="g42" transform="translate(57.616893, 22.461929) scale(-1, 1) rotate(-180.000000) translate(-57.616893, -22.461929) translate(55.806938, 20.101523)" fill="#FFFFFF" stroke="#FFFFFF" stroke-width="0.625">
                <path d="M0.0904977376,4.59898477 L0.0904977376,0.121827411 L0.784313725,0.121827411 L2.94117647,3.60913706 L2.97134238,3.60913706 L2.94117647,2.74111675 L2.94117647,0.121827411 L3.51432881,0.121827411 L3.51432881,4.59898477 L2.92609351,4.59898477 L0.663650075,0.944162437 L0.633484163,0.944162437 L0.663650075,1.81218274 L0.663650075,4.59898477 C0.663650075,4.59898477 0.0904977376,4.59898477 0.0904977376,4.59898477 Z" id="path44"></path>
            </g>
            <path d="M50.3921569,13.6903553 C48.6576169,13.6903553 47.239819,12.3502538 47.239819,10.5076142 C47.239819,8.68020305 48.6576169,7.3248731 50.3921569,7.3248731 C52.1266968,7.3248731 53.5595777,8.68020305 53.5595777,10.5076142 C53.5595777,12.3502538 52.1417798,13.6903553 50.3921569,13.6903553 Z M50.3921569,8.58883249 C49.4419306,8.58883249 48.612368,9.38071066 48.612368,10.5076142 C48.612368,11.6497462 49.4268477,12.4263959 50.3921569,12.4263959 C51.3574661,12.4263959 52.1719457,11.6497462 52.1719457,10.5076142 C52.1719457,9.38071066 51.3423831,8.58883249 50.3921569,8.58883249 Z M43.5143288,13.6903553 C41.7797888,13.6903553 40.361991,12.3502538 40.361991,10.5076142 C40.361991,8.68020305 41.7797888,7.3248731 43.5143288,7.3248731 C45.2488688,7.3248731 46.6666667,8.68020305 46.6666667,10.5076142 C46.6666667,12.3502538 45.2488688,13.6903553 43.5143288,13.6903553 Z M43.5143288,8.58883249 C42.5641026,8.58883249 41.73454,9.38071066 41.73454,10.5076142 C41.73454,11.6497462 42.5641026,12.4263959 43.5143288,12.4263959 C44.4645551,12.4263959 45.2941176,11.6497462 45.2941176,10.5076142 C45.2790347,9.38071066 44.4645551,8.58883249 43.5143288,8.58883249 Z M35.3092006,12.715736 L35.3092006,11.3604061 L38.5067873,11.3604061 C38.4162896,10.5989848 38.1598793,10.0507614 37.7828054,9.67005076 C37.3152338,9.19796954 36.5912519,8.68020305 35.3092006,8.68020305 C33.3484163,8.68020305 31.8099548,10.2791878 31.8099548,12.2588832 C31.8099548,14.2385787 33.3484163,15.8375635 35.3092006,15.8375635 C36.3650075,15.8375635 37.1493213,15.4111675 37.7224736,14.8781726 L38.6576169,15.822335 C37.8582202,16.5989848 36.8024133,17.177665 35.3092006,17.177665 C32.6093514,17.177665 30.346908,14.9695431 30.346908,12.2436548 C30.346908,9.5177665 32.6093514,7.30964467 35.3092006,7.30964467 C36.7722474,7.30964467 37.8582202,7.79695431 38.7179487,8.69543147 C39.5927602,9.5786802 39.8793363,10.8426396 39.8793363,11.8477157 C39.8793363,12.1675127 39.8491704,12.4568528 39.8039216,12.6852792 C39.8039216,12.715736 35.3092006,12.715736 35.3092006,12.715736 Z M68.8235294,11.6649746 C68.5671192,12.3807107 67.7677225,13.6903553 66.1236802,13.6903553 C64.5098039,13.6903553 63.1523379,12.3959391 63.1523379,10.5076142 C63.1523379,8.72588832 64.479638,7.3248731 66.2745098,7.3248731 C67.7224736,7.3248731 68.5520362,8.20812183 68.8989442,8.72588832 L67.8280543,9.44162437 C67.4660633,8.90862944 66.9834087,8.55837563 66.2745098,8.55837563 C65.5806938,8.55837563 65.0678733,8.87817259 64.7511312,9.5177665 L68.959276,11.2690355 C68.974359,11.3147208 68.8235294,11.6649746 68.8235294,11.6649746 Z M64.5399698,10.6142132 C64.5098039,11.8324873 65.4751131,12.4720812 66.1840121,12.4720812 C66.7269985,12.4720812 67.1945701,12.1979695 67.3604827,11.8020305 C67.3453997,11.786802 64.5399698,10.6142132 64.5399698,10.6142132 Z M61.1161388,7.52284264 L62.5037707,7.52284264 L62.5037707,16.857868 L61.1161388,16.857868 L61.1161388,7.52284264 Z M58.8536953,12.9898477 L58.8084465,12.9898477 C58.4917044,13.3553299 57.9034691,13.6903553 57.1493213,13.6903553 C55.5806938,13.6903553 54.13273,12.2893401 54.13273,10.5076142 C54.13273,8.72588832 55.5806938,7.34010152 57.1493213,7.34010152 C57.9034691,7.34010152 58.4917044,7.6751269 58.8084465,8.05583756 L58.8536953,8.05583756 L58.8536953,7.59898477 C58.8536953,6.38071066 58.2051282,5.72588832 57.1794872,5.72588832 C56.3348416,5.72588832 55.8069382,6.33502538 55.5957768,6.85279188 L54.3891403,6.35025381 C54.7360483,5.51269036 55.6561086,4.47715736 57.1794872,4.47715736 C58.8084465,4.47715736 60.1659125,5.43654822 60.1659125,7.78172589 L60.1659125,13.4923858 L58.8536953,13.4923858 L58.8536953,12.9898477 L58.8536953,12.9898477 Z M57.2699849,8.58883249 C56.3197587,8.58883249 55.520362,9.39593909 55.520362,10.5076142 C55.520362,11.6345178 56.3197587,12.4416244 57.2699849,12.4416244 C58.2051282,12.4416244 58.9441931,11.6192893 58.9441931,10.5076142 C58.9441931,9.39593909 58.2051282,8.58883249 57.2699849,8.58883249 Z M75.3092006,16.8730964 L72.0060332,16.8730964 L72.0060332,7.53807107 L73.3785822,7.53807107 L73.3785822,11.071066 L75.3092006,11.071066 C76.8476621,11.071066 78.3408748,12.1979695 78.3408748,13.964467 C78.3408748,15.7461929 76.8325792,16.8730964 75.3092006,16.8730964 Z M75.3393665,12.3654822 L73.3785822,12.3654822 L73.3785822,15.5634518 L75.3393665,15.5634518 C76.3650075,15.5634518 76.9532428,14.6954315 76.9532428,13.964467 C76.9532428,13.248731 76.3650075,12.3654822 75.3393665,12.3654822 Z M83.8763198,13.7055838 C82.8808446,13.7055838 81.8401207,13.2639594 81.4177979,12.2741117 L82.6395173,11.7563452 C82.8959276,12.2741117 83.3936652,12.4416244 83.9064857,12.4416244 C84.6153846,12.4416244 85.3544495,12 85.3544495,11.2385787 L85.3544495,11.1472081 C85.0980392,11.2994924 84.5701357,11.5126904 83.9064857,11.5126904 C82.5942685,11.5126904 81.2368024,10.7817259 81.2368024,9.41116751 C81.2368024,8.16243655 82.3227753,7.35532995 83.5294118,7.35532995 C84.4645551,7.35532995 84.9773756,7.78172589 85.2941176,8.26903553 L85.3393665,8.26903553 L85.3393665,7.55329949 L86.6666667,7.55329949 L86.6666667,11.1319797 C86.6817496,12.7766497 85.4600302,13.7055838 83.8763198,13.7055838 Z M83.7104072,8.58883249 C83.2579186,8.58883249 82.6244344,8.81725888 82.6244344,9.38071066 C82.6244344,10.0964467 83.4087481,10.3857868 84.0874811,10.3857868 C84.6907994,10.3857868 84.9773756,10.248731 85.3544495,10.0659898 C85.2337858,9.19796954 84.5098039,8.58883249 83.7104072,8.58883249 Z M91.5384615,13.5076142 L89.9547511,9.45685279 L89.9095023,9.45685279 L88.26546,13.5076142 L86.7722474,13.5076142 L89.2307692,7.85786802 L87.8280543,4.70558376 L89.2760181,4.70558376 L93.0769231,13.5076142 C93.0769231,13.5076142 91.5384615,13.5076142 91.5384615,13.5076142 Z M79.0950226,7.52284264 L80.4826546,7.52284264 L80.4826546,16.857868 L79.0950226,16.857868 L79.0950226,7.52284264 Z" id="path46" fill="#FFFFFF"></path>
            <g id="g48" transform="translate(7.239819, 5.634518)" fill="url(#linearGradient-1)">
                <path d="M0.467571644,18.6700508 C0.256410256,18.4416244 0.12066365,18.0761421 0.12066365,17.6192893 L0.12066365,1.0964467 C0.12066365,0.639593909 0.2413273,0.274111675 0.467571644,0.0456852792 L0.527903469,8.6563582e-15 L9.69834087,9.25888325 L9.69834087,9.47208122 L0.527903469,18.7309645 L0.467571644,18.6700508 Z" id="path64"></path>
            </g>
            <g id="g66" transform="translate(16.892911, 11.725888)" fill="url(#linearGradient-2)">
                <path d="M3.09200603,0.076142132 L0.0452488688,3.16751269 L0.0452488688,3.38071066 L3.10708899,6.47208122 L3.18250377,6.42639594 L6.80241327,4.34010152 C7.8280543,3.74619289 7.8280543,2.7715736 6.80241327,2.17766497 L3.18250377,0.106598985 C3.16742081,0.121827411 3.09200603,0.076142132 3.09200603,0.076142132 Z" id="path78"></path>
            </g>
            <g id="g80" transform="translate(7.692308, 5.329949)" fill="url(#linearGradient-3)">
                <path d="M12.3680241,6.5177665 L9.24585219,9.67005076 L0.0301659125,0.365482234 C0.377073906,0 0.935143288,-0.0456852792 1.56862745,0.319796954 L12.3680241,6.5177665" id="path88"></path>
            </g>
            <g id="g90" transform="translate(7.692308, 14.923858)" fill="url(#linearGradient-4)">
                <path d="M12.3680241,3.2284264 L1.55354449,9.42639594 C0.920060332,9.79187817 0.36199095,9.74619289 0.0150829563,9.38071066 L9.23076923,0.076142132 L12.3680241,3.2284264 Z" id="path104"></path>
            </g>
        </g>
    </g>
</svg>