<?xml version="1.0" encoding="UTF-8"?>
<svg width="101px" height="31px" viewBox="0 0 101 31" version="1.1" xmlns="http://www.w3.org/2000/svg" xmlns:xlink="http://www.w3.org/1999/xlink">
    <title>Group 8</title>
    <g id="Page-1" stroke="none" stroke-width="1" fill="none" fill-rule="evenodd">
        <g id="Group-8" transform="translate(0.685921, 0.709988)" fill-rule="nonzero">
            <path d="M100,26.987234 C100,28.6468085 98.7174789,30 97.1173812,30 L2.88261879,30 C1.29473556,30 0,28.6595745 0,26.987234 L0,3.01276596 C0,1.35319149 1.29473556,0 2.88261879,0 L97.1173812,0 C98.7052644,0 100,1.35319149 100,3.01276596 L100,26.987234 L100,26.987234 Z" id="Path" fill="#000000"></path>
            <path d="M21.6365824,13.9831528 C21.612515,11.6004813 23.5860409,10.433213 23.6823105,10.3850782 C22.5631769,8.76052948 20.8303249,8.53188929 20.2166065,8.5198556 C18.7605295,8.36341757 17.3525872,9.38628159 16.6064982,9.38628159 C15.8483755,9.38628159 14.7051745,8.53188929 13.4777377,8.55595668 C11.88929,8.58002407 10.4091456,9.49458484 9.60288809,10.9265945 C7.93020457,13.8267148 9.18170878,18.0986763 10.7821901,20.4452467 C11.5884477,21.6004813 12.5270758,22.8760529 13.7545126,22.8279182 C14.9578821,22.7797834 15.4031288,22.0577617 16.8592058,22.0577617 C18.2912154,22.0577617 18.7244284,22.8279182 19.9759326,22.7918171 C21.2635379,22.7677497 22.0818291,21.6365824 22.8519856,20.4813478 C23.77858,19.1696751 24.1516245,17.8700361 24.1636582,17.7978339 C24.1395909,17.7858002 21.6606498,16.8351384 21.6365824,13.9831528 Z" id="Path" fill="#FFFFFF"></path>
            <path d="M19.2659446,6.96750903 C19.9157641,6.1612515 20.3610108,5.05415162 20.2286402,3.94705174 C19.290012,3.98315283 18.1227437,4.59687124 17.4488568,5.39109507 C16.8471721,6.08904934 16.3176895,7.2322503 16.4620939,8.3032491 C17.521059,8.37545126 18.5920578,7.76173285 19.2659446,6.96750903 Z" id="Path" fill="#FFFFFF"></path>
            <g id="Group" transform="translate(30.722022, 12.647413)" fill="#FFFFFF">
                <path d="M8.33935018,10 L6.65463297,10 L5.7400722,7.11191336 L2.52707581,7.11191336 L1.64861613,10 L0.0120336943,10 L3.17689531,0.156438026 L5.13838748,0.156438026 L8.33935018,10 Z M5.45126354,5.89651023 L4.62093863,3.32129964 C4.53670277,3.05655836 4.36823105,2.44283995 4.12755716,1.46811071 L4.10348977,1.46811071 C4.00722022,1.88929001 3.85078219,2.50300842 3.63417569,3.32129964 L2.81588448,5.89651023 L5.45126354,5.89651023 Z" id="Shape"></path>
                <path d="M16.4741276,6.36582431 C16.4741276,7.56919374 16.1492178,8.53188929 15.4873646,9.22984356 C14.8977136,9.85559567 14.1636582,10.1684717 13.2972323,10.1684717 C12.3586041,10.1684717 11.6847172,9.83152828 11.2755716,9.1576414 L11.2755716,12.8880866 L9.69915764,12.8880866 L9.69915764,5.24669073 C9.69915764,4.48856799 9.67509025,3.70637786 9.63898917,2.91215403 L11.022864,2.91215403 L11.1070999,4.0433213 L11.1311673,4.0433213 C11.6606498,3.2009627 12.4548736,2.7677497 13.5258724,2.7677497 C14.368231,2.7677497 15.0661853,3.09265945 15.6197353,3.76654633 C16.1853189,4.41636582 16.4741276,5.28279182 16.4741276,6.36582431 Z M14.8616125,6.42599278 C14.8616125,5.7400722 14.7051745,5.16245487 14.3922984,4.71720818 C14.055355,4.2478941 13.5980746,4.01925391 13.0204573,4.01925391 C12.6353791,4.01925391 12.2743682,4.15162455 11.9614922,4.40433213 C11.6486161,4.66907341 11.4320096,5.00601685 11.3357401,5.41516245 C11.2876053,5.60770156 11.2635379,5.76413959 11.2635379,5.89651023 L11.2635379,7.07581227 C11.2635379,7.59326113 11.4199759,8.02647413 11.732852,8.38748496 C12.045728,8.74849579 12.4669073,8.91696751 12.9723225,8.91696751 C13.5619735,8.91696751 14.0312876,8.68832732 14.3561974,8.23104693 C14.6931408,7.77376655 14.8616125,7.17208183 14.8616125,6.42599278 Z" id="Shape"></path>
                <path d="M24.6329723,6.36582431 C24.6329723,7.56919374 24.3080626,8.53188929 23.6462094,9.22984356 C23.0565584,9.85559567 22.322503,10.1684717 21.456077,10.1684717 C20.5174489,10.1684717 19.843562,9.83152828 19.4344164,9.1576414 L19.4344164,12.8880866 L17.8580024,12.8880866 L17.8580024,5.24669073 C17.8580024,4.48856799 17.833935,3.70637786 17.7978339,2.91215403 L19.1817088,2.91215403 L19.2659446,4.0433213 L19.290012,4.0433213 C19.8194946,3.2009627 20.6137184,2.7677497 21.6847172,2.7677497 C22.5270758,2.7677497 23.2250301,3.09265945 23.77858,3.76654633 C24.3561974,4.41636582 24.6329723,5.28279182 24.6329723,6.36582431 Z M23.032491,6.42599278 C23.032491,5.7400722 22.8760529,5.16245487 22.5631769,4.71720818 C22.2262335,4.2478941 21.7689531,4.01925391 21.1913357,4.01925391 C20.8062575,4.01925391 20.4452467,4.15162455 20.1323706,4.40433213 C19.8194946,4.66907341 19.6149218,5.00601685 19.5066185,5.41516245 C19.4584838,5.60770156 19.4344164,5.76413959 19.4344164,5.89651023 L19.4344164,7.07581227 C19.4344164,7.59326113 19.5908544,8.02647413 19.9037304,8.38748496 C20.2166065,8.73646209 20.6377858,8.91696751 21.143201,8.91696751 C21.732852,8.91696751 22.2021661,8.68832732 22.5270758,8.23104693 C22.8640193,7.77376655 23.032491,7.17208183 23.032491,6.42599278 Z" id="Shape"></path>
                <path d="M33.7665463,7.244284 C33.7665463,8.0866426 33.4777377,8.76052948 32.8880866,9.29001203 C32.2503008,9.86762936 31.3477738,10.156438 30.2045728,10.156438 C29.1456077,10.156438 28.2912154,9.95186522 27.6534296,9.54271961 L28.0144404,8.23104693 C28.700361,8.64019254 29.4705174,8.84476534 30.2888087,8.84476534 C30.8784597,8.84476534 31.3477738,8.71239471 31.6726835,8.44765343 C31.9975933,8.18291215 32.166065,7.82190132 32.166065,7.37665463 C32.166065,6.97954272 32.0336943,6.64259928 31.7569194,6.36582431 C31.4801444,6.08904934 31.0348977,5.83634176 30.3971119,5.60770156 C28.6762936,4.96991576 27.8098676,4.01925391 27.8098676,2.79181709 C27.8098676,1.98555957 28.11071,1.32370638 28.7244284,0.806257521 C29.3381468,0.288808664 30.1444043,0.036101083 31.143201,0.036101083 C32.0336943,0.036101083 32.7918171,0.19253911 33.3814681,0.505415162 L32.9843562,1.79302046 C32.4308063,1.4921781 31.7930205,1.33574007 31.0950662,1.33574007 C30.5415162,1.33574007 30.0962696,1.46811071 29.7954272,1.74488568 C29.5306859,1.98555957 29.3983153,2.28640193 29.3983153,2.63537906 C29.3983153,3.02045728 29.5547533,3.34536703 29.8555957,3.59807461 C30.1203369,3.8267148 30.589651,4.07942238 31.2876053,4.35619735 C32.1299639,4.69314079 32.755716,5.09025271 33.1528279,5.54753309 C33.5740072,5.99277978 33.7665463,6.55836342 33.7665463,7.244284 Z" id="Path"></path>
                <path d="M39.0012034,4.09145608 L37.2563177,4.09145608 L37.2563177,7.53309266 C37.2563177,8.41155235 37.55716,8.84476534 38.1708785,8.84476534 C38.4476534,8.84476534 38.6883273,8.82069795 38.8688327,8.77256318 L38.9169675,9.97593261 C38.6040915,10.0962696 38.1949458,10.156438 37.6895307,10.156438 C37.0637786,10.156438 36.5824308,9.96389892 36.2334537,9.59085439 C35.8844765,9.20577617 35.7039711,8.56799037 35.7039711,7.67749699 L35.7039711,4.09145608 L34.6690734,4.09145608 L34.6690734,2.91215403 L35.7039711,2.91215403 L35.7039711,1.61251504 L37.2563177,1.14320096 L37.2563177,2.91215403 L39.0012034,2.91215403 C39.0012034,2.90012034 39.0012034,4.09145608 39.0012034,4.09145608 Z" id="Path"></path>
                <path d="M46.8351384,6.40192539 C46.8351384,7.49699158 46.5222623,8.38748496 45.8965102,9.08543923 C45.2466907,9.80746089 44.3802647,10.1684717 43.2972323,10.1684717 C42.2503008,10.1684717 41.4199759,9.81949458 40.8062575,9.13357401 C40.1925391,8.44765343 39.8796631,7.56919374 39.8796631,6.52226233 C39.8796631,5.42719615 40.2045728,4.52466907 40.8423586,3.81468111 C41.4801444,3.11672684 42.3465704,2.7677497 43.4175692,2.7677497 C44.4645006,2.7677497 45.2948255,3.11672684 45.9326113,3.80264741 C46.5222623,4.4645006 46.8351384,5.33092659 46.8351384,6.40192539 Z M45.198556,6.43802647 C45.198556,5.78820698 45.0541516,5.23465704 44.7773767,4.76534296 C44.4524669,4.19975933 43.9711191,3.92298436 43.3574007,3.92298436 C42.7196149,3.92298436 42.2382671,4.19975933 41.9133574,4.76534296 C41.6365824,5.23465704 41.4921781,5.80024067 41.4921781,6.47412756 C41.4921781,7.12394705 41.6365824,7.68953069 41.9133574,8.14681107 C42.2503008,8.71239471 42.7316486,8.98916968 43.345367,8.98916968 C43.9470517,8.98916968 44.4163658,8.70036101 44.765343,8.13477738 C45.0421179,7.64139591 45.198556,7.08784597 45.198556,6.43802647 Z" id="Shape"></path>
                <path d="M51.9614922,4.29602888 C51.8050542,4.27196149 51.6365824,4.2478941 51.4681107,4.2478941 C50.9145608,4.2478941 50.4813478,4.45246691 50.1805054,4.87364621 C49.9157641,5.24669073 49.7833935,5.71600481 49.7833935,6.28158845 L49.7833935,10.0120337 L48.2069795,10.0120337 L48.2069795,5.15042118 C48.2069795,4.33212996 48.1949458,3.58604091 48.1588448,2.91215403 L49.5306859,2.91215403 L49.5908544,4.27196149 L49.6389892,4.27196149 C49.8074609,3.80264741 50.0722022,3.42960289 50.433213,3.14079422 C50.7821901,2.88808664 51.1672684,2.755716 51.576414,2.755716 C51.7208183,2.755716 51.8531889,2.7677497 51.9735259,2.77978339 L51.9614922,4.29602888 L51.9614922,4.29602888 Z" id="Path"></path>
                <path d="M59.0132371,6.11311673 C59.0132371,6.3898917 58.9891697,6.63056558 58.9530686,6.82310469 L54.2238267,6.82310469 C54.2358604,7.52105897 54.4765343,8.06257521 54.9097473,8.43561974 C55.3068592,8.76052948 55.8243081,8.9290012 56.4620939,8.9290012 C57.1600481,8.9290012 57.7978339,8.82069795 58.3754513,8.59205776 L58.6281588,9.68712395 C57.954272,9.97593261 57.1600481,10.1203369 56.2454874,10.1203369 C55.1504212,10.1203369 54.2839952,9.7954272 53.6462094,9.1456077 C53.0204573,8.49578821 52.7075812,7.62936221 52.7075812,6.53429603 C52.7075812,5.46329723 52.9963899,4.57280385 53.5860409,3.86281588 C54.1997593,3.10469314 55.0300842,2.71961492 56.0649819,2.71961492 C57.087846,2.71961492 57.8580024,3.10469314 58.387485,3.86281588 C58.8086643,4.48856799 59.0132371,5.23465704 59.0132371,6.11311673 Z M57.5090253,5.70397112 C57.521059,5.23465704 57.4127557,4.83754513 57.2081829,4.48856799 C56.9314079,4.0433213 56.5102286,3.8267148 55.9566787,3.8267148 C55.4392298,3.8267148 55.0180505,4.0433213 54.7051745,4.4645006 C54.4404332,4.80144404 54.2839952,5.21058965 54.2358604,5.69193742 L57.5090253,5.70397112 L57.5090253,5.70397112 Z" id="Shape"></path>
            </g>
            <g id="Group" transform="translate(31.203369, 4.103490)" fill="#FFFFFF">
                <path d="M4.21179302,5.17448857 L3.38146811,5.17448857 L2.92418773,3.75451264 L1.34777377,3.75451264 L0.91456077,5.17448857 L0.108303249,5.17448857 L1.66064982,0.336943442 L2.62334537,0.336943442 L4.21179302,5.17448857 Z M2.80385078,3.16486161 L2.39470517,1.90132371 C2.3465704,1.76895307 2.27436823,1.46811071 2.15403129,0.986762936 L2.14199759,0.986762936 C2.09386282,1.19133574 2.02166065,1.4921781 1.9133574,1.90132371 L1.51624549,3.16486161 L2.80385078,3.16486161 Z" id="Shape"></path>
                <path d="M8.11070999,1.68471721 L6.78700361,5.17448857 L6.02888087,5.17448857 L4.75330927,1.68471721 L5.58363418,1.68471721 L6.18531889,3.52587244 C6.28158845,3.8387485 6.36582431,4.12755716 6.43802647,4.40433213 L6.46209386,4.40433213 C6.52226233,4.15162455 6.60649819,3.86281588 6.71480144,3.52587244 L7.30445247,1.68471721 C7.29241877,1.68471721 8.11070999,1.68471721 8.11070999,1.68471721 Z" id="Path"></path>
                <path d="M10.9265945,5.17448857 L10.866426,4.77737665 L10.8423586,4.77737665 C10.6016847,5.1022864 10.2647413,5.25872443 9.81949458,5.25872443 C9.19374248,5.25872443 8.74849579,4.82551143 8.74849579,4.23586041 C8.74849579,3.36943442 9.49458484,2.92418773 10.7821901,2.92418773 L10.7821901,2.86401925 C10.7821901,2.40673887 10.5415162,2.17809868 10.0601685,2.17809868 C9.71119134,2.17809868 9.41034898,2.26233454 9.1456077,2.44283995 L8.98916968,1.93742479 C9.31407942,1.73285199 9.71119134,1.63658243 10.1925391,1.63658243 C11.1070999,1.63658243 11.5643803,2.1179302 11.5643803,3.08062575 L11.5643803,4.36823105 C11.5643803,4.71720818 11.576414,4.99398315 11.612515,5.19855596 L10.9265945,5.17448857 L10.9265945,5.17448857 Z M10.8182912,3.44163658 C9.95186522,3.44163658 9.53068592,3.64620939 9.53068592,4.13959085 C9.53068592,4.50060168 9.75932611,4.6811071 10.0601685,4.6811071 C10.4572804,4.6811071 10.8182912,4.38026474 10.8182912,3.97111913 C10.8182912,3.98315283 10.8182912,3.44163658 10.8182912,3.44163658 Z" id="Shape"></path>
                <path d="M13.3268698,1.10709988 C13.0577836,1.10709988 12.8399519,0.902527076 12.8399519,0.6377858 C12.8399519,0.373044525 13.0577836,0.180505415 13.3396834,0.180505415 C13.6215832,0.180505415 13.8522285,0.373044525 13.8394149,0.6377858 C13.8522285,0.926594465 13.6343968,1.10709988 13.3268698,1.10709988 Z M13.7497195,5.17448857 L12.9296473,5.17448857 L12.9296473,1.68471721 L13.7497195,1.68471721 L13.7497195,5.17448857 Z" id="Shape"></path>
                <polygon id="Path" points="15.8483755 5.17448857 15.078219 5.17448857 15.078219 0.0842358604 15.8483755 0.0842358604"></polygon>
                <path d="M19.1456077,5.17448857 L19.0854392,4.77737665 L19.0613718,4.77737665 C18.820698,5.1022864 18.4837545,5.25872443 18.0385078,5.25872443 C17.4127557,5.25872443 16.967509,4.82551143 16.967509,4.23586041 C16.967509,3.36943442 17.7135981,2.92418773 19.0012034,2.92418773 L19.0012034,2.86401925 C19.0012034,2.40673887 18.7605295,2.17809868 18.2791817,2.17809868 C17.9302046,2.17809868 17.6293622,2.26233454 17.3646209,2.44283995 L17.2081829,1.93742479 C17.5330927,1.73285199 17.9302046,1.63658243 18.4115523,1.63658243 C19.3261131,1.63658243 19.7833935,2.1179302 19.7833935,3.08062575 L19.7833935,4.36823105 C19.7833935,4.71720818 19.7954272,4.99398315 19.8315283,5.19855596 L19.1456077,5.19855596 L19.1456077,5.17448857 Z M19.0373045,3.44163658 C18.1708785,3.44163658 17.7496992,3.64620939 17.7496992,4.13959085 C17.7496992,4.50060168 17.9783394,4.6811071 18.2791817,4.6811071 C18.6762936,4.6811071 19.0373045,4.38026474 19.0373045,3.97111913 L19.0373045,3.44163658 Z" id="Shape"></path>
                <path d="M22.9362214,5.25872443 C22.44284,5.25872443 22.0697954,5.05415162 21.8411552,4.64500602 L21.8291215,4.64500602 L21.7809868,5.18652226 L21.1191336,5.18652226 C21.143201,4.90974729 21.143201,4.58483755 21.143201,4.2478941 L21.143201,0.0962695548 L21.9253911,0.0962695548 L21.9253911,2.20216606 L21.9374248,2.20216606 C22.166065,1.81708785 22.5391095,1.62454874 23.0445247,1.62454874 C23.8868833,1.62454874 24.4765343,2.3465704 24.4765343,3.39350181 C24.4765343,4.4645006 23.8267148,5.25872443 22.9362214,5.25872443 Z M22.7797834,2.22623345 C22.3345367,2.22623345 21.9253911,2.61131167 21.9253911,3.15282792 L21.9253911,3.76654633 C21.9253911,4.2478941 22.2864019,4.64500602 22.7677497,4.64500602 C23.345367,4.64500602 23.6943442,4.17569194 23.6943442,3.41756919 C23.6943442,2.70758123 23.3333333,2.22623345 22.7797834,2.22623345 Z" id="Shape"></path>
                <polygon id="Path" points="26.4019254 5.17448857 25.631769 5.17448857 25.631769 0.0842358604 26.4019254 0.0842358604"></polygon>
                <path d="M30.6257521,3.622142 L28.3032491,3.622142 C28.3152828,4.28399519 28.7605295,4.65703971 29.3983153,4.65703971 C29.7472924,4.65703971 30.0601685,4.59687124 30.3369434,4.48856799 L30.4572804,5.03008424 C30.1323706,5.17448857 29.7352587,5.24669073 29.290012,5.24669073 C28.1949458,5.24669073 27.55716,4.56077016 27.55716,3.48977136 C27.55716,2.41877256 28.2190132,1.61251504 29.2057762,1.61251504 C30.0962696,1.61251504 30.6618532,2.27436823 30.6618532,3.27316486 C30.6498195,3.4055355 30.6498195,3.52587244 30.6257521,3.622142 Z M29.9157641,3.06859206 C29.9157641,2.52707581 29.6389892,2.15403129 29.1456077,2.15403129 C28.700361,2.15403129 28.3513839,2.53910951 28.3032491,3.06859206 L29.9157641,3.06859206 Z" id="Shape"></path>
                <path d="M35.3309266,5.25872443 C34.3080626,5.25872443 33.6462094,4.50060168 33.6462094,3.46570397 C33.6462094,2.38267148 34.3200963,1.62454874 35.3910951,1.62454874 C36.3898917,1.62454874 37.0758123,2.3465704 37.0758123,3.41756919 C37.0637786,4.50060168 36.3658243,5.25872443 35.3309266,5.25872443 Z M35.354994,2.17809868 C34.7894103,2.17809868 34.4404332,2.70758123 34.4404332,3.42960289 C34.4404332,4.15162455 34.801444,4.66907341 35.354994,4.66907341 C35.9085439,4.66907341 36.2695548,4.10348977 36.2695548,3.41756919 C36.2575211,2.71961492 35.8965102,2.17809868 35.354994,2.17809868 Z" id="Shape"></path>
                <path d="M41.2274368,5.17448857 L40.4572804,5.17448857 L40.4572804,3.16486161 C40.4572804,2.5511432 40.2166065,2.23826715 39.7593261,2.23826715 C39.3020457,2.23826715 38.977136,2.63537906 38.977136,3.09265945 L38.977136,5.17448857 L38.2069795,5.17448857 L38.2069795,2.68351384 C38.2069795,2.37063779 38.1949458,2.04572804 38.1829122,1.68471721 L38.8688327,1.68471721 L38.9049338,2.22623345 L38.9290012,2.22623345 C39.133574,1.85318893 39.566787,1.61251504 40.0361011,1.61251504 C40.7701564,1.61251504 41.2515042,2.17809868 41.2515042,3.08062575 L41.2274368,5.17448857 L41.2274368,5.17448857 Z" id="Path"></path>
                <path d="M46.3056558,2.27436823 L45.4512635,2.27436823 L45.4512635,3.97111913 C45.4512635,4.40433213 45.5956679,4.62093863 45.9085439,4.62093863 C46.0409146,4.62093863 46.1612515,4.60890493 46.2575211,4.58483755 L46.2815884,5.17448857 C46.1251504,5.23465704 45.9326113,5.25872443 45.6799037,5.25872443 C45.0661853,5.25872443 44.7051745,4.92178099 44.7051745,4.0433213 L44.7051745,2.28640193 L44.1997593,2.28640193 L44.1997593,1.68471721 L44.7051745,1.68471721 L44.7051745,1.04693141 L45.4632972,0.818291215 L45.4632972,1.68471721 L46.3176895,1.68471721 L46.3176895,2.27436823 L46.3056558,2.27436823 Z" id="Path"></path>
                <path d="M50.4091456,5.17448857 L49.6269555,5.17448857 L49.6269555,3.188929 C49.6269555,2.5631769 49.3862816,2.25030084 48.9290012,2.25030084 C48.5318893,2.25030084 48.1588448,2.52707581 48.1588448,3.08062575 L48.1588448,5.17448857 L47.3766546,5.17448857 L47.3766546,0.0842358604 L48.1588448,0.0842358604 L48.1588448,2.17809868 L48.1708785,2.17809868 C48.4115523,1.79302046 48.7725632,1.61251504 49.2178099,1.61251504 C49.9518652,1.61251504 50.4091456,2.19013237 50.4091456,3.10469314 L50.4091456,5.17448857 L50.4091456,5.17448857 Z" id="Path"></path>
                <path d="M54.3802647,3.622142 L52.045728,3.622142 C52.0577617,4.28399519 52.5030084,4.65703971 53.1407942,4.65703971 C53.4897714,4.65703971 53.8026474,4.59687124 54.0794224,4.48856799 L54.1997593,5.03008424 C53.8748496,5.17448857 53.4777377,5.24669073 53.032491,5.24669073 C51.9374248,5.24669073 51.299639,4.56077016 51.299639,3.48977136 C51.299639,2.41877256 51.9614922,1.61251504 52.9482551,1.61251504 C53.8387485,1.61251504 54.4043321,2.27436823 54.4043321,3.27316486 C54.4043321,3.4055355 54.3922984,3.52587244 54.3802647,3.622142 Z M53.6702768,3.06859206 C53.6702768,2.52707581 53.3935018,2.15403129 52.9001203,2.15403129 C52.4548736,2.15403129 52.1058965,2.53910951 52.0577617,3.06859206 L53.6702768,3.06859206 Z" id="Shape"></path>
            </g>
        </g>
    </g>
</svg>