<svg id="Layer_1" data-name="Layer 1" xmlns="http://www.w3.org/2000/svg" viewBox="0 0 1920 652.63"><defs><style>.cls-1{fill:#2c2c2c;}</style></defs><title>logo</title><path class="cls-1" d="M0,652.56S1101.44,382,1917.47,572.61l2.53-8.81S1208,353.55,13.67,609.68Z" transform="translate(0 0.07)"/><path class="cls-1" d="M528,121.35V166.2c4-9,9.23-21.15,23.07-32.67,15-12.81,36.88-19.86,58.21-19.86a98.71,98.71,0,0,1,32.85,5.76c34,12.82,43.81,39.72,47.84,51.24,26.52-49.32,68.6-56.35,91.08-56.35,27.66,0,51.87,10.25,68,26.26,28.82,28.18,30,58.9,30,135.75V453.11H794.26V296.19c0-53.16-1.14-64-9.79-78.12-9.23-15.37-22.49-18.59-35.17-18.59-23,0-34.58,16.66-36.31,19.22-9.22,16-9.22,43.55-9.22,70.44v164H619V286c0-35.87,0-51.87-8.64-66.61a40.34,40.34,0,0,0-34.58-19.86,44.94,44.94,0,0,0-21.91,5.78c-24.79,14.08-25.36,38.42-25.36,101.18V453.11H443.81V121.35Z" transform="translate(0 0.07)"/><path class="cls-1" d="M1215.93,121.35h86.47l-86.47,331.76h-79L1086.8,229l-49.57,224.16H957.12L870.66,121.35h86.46l45.53,207.51,46.68-207.51h74.93l46.14,207.51Z" transform="translate(0 0.07)"/><path class="cls-1" d="M1480.33,283.38c0,30.11-4,58.92-21.89,80.71-15,17.28-31.71,18.57-36.9,18.57-16.7,0-35.74-10.25-47.26-39.08-6.91-16.65-9.22-36.5-9.22-57,0-25.62,3.46-51.87,17.86-73,10.38-14.73,26.51-24.33,42.09-24.33,12.66,0,25.34,6.4,34,16.65C1470,218.07,1480.33,240.49,1480.33,283.38Zm4.38,169.73h83V120.72h-81.27v42.91c-15-32-40.92-50.6-73.77-50.6-56.49,0-130.28,48.68-130.28,179.33,0,103.74,53,167.8,123.94,167.8,48.42,0,68-28.18,78.38-43.55Z" transform="translate(0 0.07)"/><path class="cls-1" d="M1763.38,121.35h86.12l-94.77,329.2c-6.92,23.06-17.86,60.85-34.58,79.42-15.57,16.64-34,24.33-102.6,24.33-9.81,0-13.83-.64-22.48-1.27V479.37h22.48c8.07,0,27.09,0,35.74-8.33,6.9-5.76,12.68-19.85,12.68-33.3,0-7.05-3.47-19.86-6.34-28.19l-92.23-288.2h92.23l54.18,223.52Z" transform="translate(0 0.07)"/><path class="cls-1" d="M254.58,99.43,300.05,274H211.47ZM200.84-.07,58.52,453.11H163l26.57-96.29H323.08l27.17,96.29H455.36L307.13-.07Z" transform="translate(0 0.07)"/></svg>